<svg width="248" height="60" viewBox="0 0 248 60" fill="none" xmlns="http://www.w3.org/2000/svg">
<path d="M93.9716 22.1307C93.8352 20.7557 93.25 19.6875 92.2159 18.9261C91.1818 18.1648 89.7784 17.7841 88.0057 17.7841C86.8011 17.7841 85.7841 17.9545 84.9545 18.2955C84.125 18.625 83.4886 19.0852 83.0455 19.6761C82.6136 20.267 82.3977 20.9375 82.3977 21.6875C82.375 22.3125 82.5057 22.858 82.7898 23.3239C83.0852 23.7898 83.4886 24.1932 84 24.5341C84.5114 24.8636 85.1023 25.1534 85.7727 25.4034C86.4432 25.642 87.1591 25.8466 87.9205 26.017L91.0568 26.767C92.5795 27.108 93.9773 27.5625 95.25 28.1307C96.5227 28.6989 97.625 29.3977 98.5568 30.2273C99.4886 31.0568 100.21 32.0341 100.722 33.1591C101.244 34.2841 101.511 35.5739 101.523 37.0284C101.511 39.1648 100.966 41.017 99.8864 42.5852C98.8182 44.142 97.2727 45.3523 95.25 46.2159C93.2386 47.0682 90.8125 47.4943 87.9716 47.4943C85.1534 47.4943 82.6989 47.0625 80.608 46.1989C78.5284 45.3352 76.9034 44.0568 75.733 42.3636C74.5739 40.6591 73.9659 38.5511 73.9091 36.0398H81.0511C81.1307 37.2102 81.4659 38.1875 82.0568 38.9716C82.6591 39.7443 83.4602 40.3295 84.4602 40.7273C85.4716 41.1136 86.6136 41.3068 87.8864 41.3068C89.1364 41.3068 90.2216 41.125 91.142 40.7614C92.0739 40.3977 92.7955 39.892 93.3068 39.2443C93.8182 38.5966 94.0739 37.8523 94.0739 37.0114C94.0739 36.2273 93.8409 35.5682 93.375 35.0341C92.9205 34.5 92.25 34.0455 91.3636 33.6705C90.4886 33.2955 89.4148 32.9545 88.142 32.6477L84.3409 31.6932C81.3977 30.9773 79.0739 29.858 77.3693 28.3352C75.6648 26.8125 74.8182 24.7614 74.8295 22.1818C74.8182 20.0682 75.3807 18.2216 76.517 16.642C77.6648 15.0625 79.2386 13.8295 81.2386 12.9432C83.2386 12.0568 85.5114 11.6136 88.0568 11.6136C90.6477 11.6136 92.9091 12.0568 94.8409 12.9432C96.7841 13.8295 98.2955 15.0625 99.375 16.642C100.455 18.2216 101.011 20.0511 101.045 22.1307H93.9716ZM113.612 31.8636V47H106.351V12.0909H113.408V25.4375H113.714C114.305 23.892 115.26 22.6818 116.578 21.8068C117.896 20.9205 119.55 20.4773 121.538 20.4773C123.357 20.4773 124.942 20.875 126.294 21.6705C127.658 22.4545 128.714 23.5852 129.464 25.0625C130.226 26.5284 130.601 28.2841 130.589 30.3295V47H123.328V31.625C123.339 30.0114 122.93 28.7557 122.101 27.858C121.283 26.9602 120.135 26.5114 118.658 26.5114C117.669 26.5114 116.794 26.7216 116.033 27.142C115.283 27.5625 114.692 28.1761 114.26 28.983C113.839 29.7784 113.624 30.7386 113.612 31.8636ZM149.923 47.767C146.991 47.7557 144.469 47.0341 142.355 45.6023C140.253 44.1705 138.634 42.0966 137.497 39.3807C136.372 36.6648 135.815 33.3977 135.827 29.5795C135.827 25.7727 136.389 22.5284 137.514 19.8466C138.651 17.1648 140.27 15.125 142.372 13.7273C144.486 12.3182 147.003 11.6136 149.923 11.6136C152.844 11.6136 155.355 12.3182 157.457 13.7273C159.571 15.1364 161.196 17.1818 162.332 19.8636C163.469 22.5341 164.031 25.7727 164.02 29.5795C164.02 33.4091 163.452 36.6818 162.315 39.3977C161.19 42.1136 159.577 44.1875 157.474 45.6193C155.372 47.0511 152.855 47.767 149.923 47.767ZM149.923 41.6477C151.923 41.6477 153.52 40.642 154.713 38.6307C155.906 36.6193 156.497 33.6023 156.486 29.5795C156.486 26.9318 156.213 24.7273 155.668 22.9659C155.134 21.2045 154.372 19.8807 153.384 18.9943C152.406 18.108 151.253 17.6648 149.923 17.6648C147.935 17.6648 146.344 18.6591 145.151 20.6477C143.957 22.6364 143.355 25.6136 143.344 29.5795C143.344 32.2614 143.611 34.5 144.145 36.2955C144.69 38.0795 145.457 39.4205 146.446 40.3182C147.435 41.2045 148.594 41.6477 149.923 41.6477ZM169.351 47V20.8182H176.391V25.3864H176.663C177.141 23.7614 177.942 22.5341 179.067 21.7045C180.192 20.8636 181.487 20.4432 182.953 20.4432C183.317 20.4432 183.709 20.4659 184.129 20.5114C184.55 20.5568 184.919 20.6193 185.237 20.6989V27.142C184.896 27.0398 184.425 26.9489 183.822 26.8693C183.22 26.7898 182.669 26.75 182.169 26.75C181.101 26.75 180.146 26.983 179.305 27.4489C178.476 27.9034 177.817 28.5398 177.328 29.358C176.851 30.1761 176.612 31.1193 176.612 32.1875V47H169.351ZM204.23 20.8182V26.2727H188.463V20.8182H204.23ZM192.043 14.5455H199.304V38.9545C199.304 39.625 199.406 40.1477 199.611 40.5227C199.815 40.8864 200.099 41.142 200.463 41.2898C200.838 41.4375 201.27 41.5114 201.759 41.5114C202.099 41.5114 202.44 41.483 202.781 41.4261C203.122 41.358 203.384 41.3068 203.565 41.2727L204.707 46.6761C204.344 46.7898 203.832 46.9205 203.173 47.0682C202.514 47.2273 201.713 47.3239 200.77 47.358C199.02 47.4261 197.486 47.1932 196.168 46.6591C194.861 46.125 193.844 45.2955 193.116 44.1705C192.389 43.0455 192.031 41.625 192.043 39.9091V14.5455ZM216.784 12.0909V47H209.523V12.0909H216.784ZM227.084 56.8182C226.163 56.8182 225.3 56.7443 224.493 56.5966C223.697 56.4602 223.038 56.2841 222.516 56.0682L224.152 50.6477C225.004 50.9091 225.771 51.0511 226.453 51.0739C227.146 51.0966 227.743 50.9375 228.243 50.5966C228.754 50.2557 229.169 49.6761 229.487 48.858L229.913 47.75L220.521 20.8182H228.158L233.578 40.0455H233.851L239.322 20.8182H247.01L236.834 49.8295C236.345 51.2386 235.68 52.4659 234.839 53.5114C234.01 54.5682 232.959 55.3807 231.686 55.9489C230.413 56.5284 228.879 56.8182 227.084 56.8182Z" fill="#3B82F6"/>
<rect x="37.4349" y="4.94975" width="23.6775" height="45.9409" rx="11.8388" transform="rotate(45 37.4349 4.94975)" stroke="#3B82F6" stroke-width="7"/>
<line x1="6.77197" y1="52.5015" x2="25.8222" y2="33.4513" stroke="#3B82F6" stroke-width="7" stroke-linecap="round"/>
<line x1="33.1862" y1="26.0874" x2="54.2364" y2="5.03711" stroke="#3B82F6" stroke-width="7" stroke-linecap="round"/>
</svg>
